<?xml version="1.0" encoding="utf-8"?>
<!-- Generator: Adobe Illustrator 25.2.3, SVG Export Plug-In . SVG Version: 6.00 Build 0)  -->
<svg version="1.1" id="Слой_1" xmlns="http://www.w3.org/2000/svg" xmlns:xlink="http://www.w3.org/1999/xlink" x="0px" y="0px"
	 viewBox="0 0 396.85 198.43" style="enable-background:new 0 0 396.85 198.43;" xml:space="preserve">
<style type="text/css">
	.st0{fill:#05498C;}
	.st1{fill:#E40521;}
</style>
<g>
	<path d="M146.54,101.06v-11.1h-3.87v-3.96h12.11v3.96h-3.87v11.1H146.54z"/>
	<path d="M156.71,101.06V86.01h6.28c1.59,0,2.86,0.32,3.79,0.96c0.94,0.64,1.41,1.6,1.41,2.87c0,0.44-0.08,0.85-0.25,1.21
		s-0.39,0.68-0.69,0.97c-0.29,0.28-0.63,0.53-1.02,0.73c0.8,0.3,1.43,0.79,1.9,1.46c0.47,0.67,0.7,1.45,0.7,2.33
		c0,0.94-0.24,1.75-0.7,2.42c-0.47,0.68-1.14,1.2-2,1.56s-1.89,0.55-3.08,0.55H156.71z M161.06,92.01h1.38
		c0.33,0,0.61-0.06,0.84-0.17c0.23-0.11,0.41-0.28,0.54-0.5c0.12-0.22,0.19-0.48,0.19-0.79c0-0.45-0.14-0.8-0.42-1.05
		c-0.28-0.25-0.69-0.37-1.21-0.37h-1.31V92.01z M161.06,97.94h1.42c0.6,0,1.06-0.13,1.37-0.39c0.31-0.26,0.46-0.64,0.46-1.13
		c0-0.47-0.14-0.85-0.42-1.12s-0.68-0.41-1.19-0.41h-1.63V97.94z"/>
	<path d="M171.21,101.06V86.01h11.16v3.74h-6.82v1.96h5.59v3.42h-5.59v2.15h6.9v3.78H171.21z"/>
	<path d="M185.18,101.06V86.01h6.43c1.15,0,2.18,0.2,3.09,0.61c0.9,0.41,1.62,1,2.13,1.78s0.78,1.71,0.78,2.81
		c0,1.1-0.24,2.04-0.72,2.82c-0.48,0.77-1.18,1.37-2.09,1.77s-2.01,0.61-3.3,0.61h-1.98v4.64H185.18z M189.53,92.82h1.81
		c0.6,0,1.08-0.11,1.42-0.34c0.34-0.23,0.52-0.63,0.52-1.21c0-0.6-0.18-1.01-0.54-1.24c-0.36-0.22-0.82-0.33-1.38-0.33h-1.83V92.82z
		"/>
	<path d="M199.65,101.06V86.01H204v4.64h2.09c1.15,0,2.17,0.2,3.07,0.61s1.62,1,2.14,1.78c0.52,0.78,0.78,1.71,0.78,2.81
		c0,0.82-0.13,1.56-0.41,2.2c-0.27,0.65-0.67,1.19-1.19,1.64c-0.52,0.45-1.16,0.79-1.92,1.02c-0.76,0.23-1.62,0.34-2.59,0.34H199.65
		z M204,97.47h1.81c0.6,0,1.07-0.11,1.42-0.34c0.34-0.23,0.52-0.63,0.52-1.21c0-0.6-0.18-1.01-0.54-1.24
		c-0.36-0.22-0.82-0.33-1.38-0.33H204V97.47z"/>
	<path d="M221.18,101.38c-1.56,0-2.94-0.32-4.15-0.95c-1.2-0.63-2.14-1.53-2.82-2.69c-0.68-1.16-1.02-2.55-1.02-4.14
		c0-1.17,0.2-2.24,0.59-3.2c0.39-0.97,0.95-1.8,1.67-2.5c0.72-0.7,1.57-1.25,2.55-1.63c0.98-0.38,2.06-0.58,3.23-0.58
		c1.33,0,2.43,0.17,3.29,0.51c0.86,0.34,1.66,0.81,2.39,1.43l-2.13,3.57c-0.39-0.42-0.86-0.74-1.41-0.95s-1.17-0.32-1.85-0.32
		c-0.61,0-1.15,0.08-1.61,0.25s-0.86,0.41-1.18,0.73c-0.32,0.32-0.56,0.7-0.73,1.14c-0.17,0.44-0.25,0.94-0.25,1.49
		c0,0.75,0.15,1.4,0.45,1.94s0.73,0.95,1.3,1.24c0.57,0.29,1.25,0.44,2.05,0.44c0.62,0,1.24-0.1,1.88-0.29
		c0.63-0.19,1.24-0.5,1.82-0.91l1.98,3.63c-0.67,0.52-1.51,0.95-2.5,1.29C223.74,101.21,222.55,101.38,221.18,101.38z"/>
	<path d="M231.68,101.06v-11.1h-3.87v-3.96h12.11v3.96h-3.87v11.1H231.68z"/>
	<path d="M241.85,101.06V86.01h6.43c1.15,0,2.18,0.2,3.09,0.61c0.9,0.41,1.61,1,2.13,1.78s0.78,1.71,0.78,2.81
		c0,1.1-0.24,2.04-0.72,2.82c-0.48,0.77-1.18,1.37-2.09,1.77s-2.01,0.61-3.3,0.61h-1.98v4.64H241.85z M246.2,92.82H248
		c0.6,0,1.08-0.11,1.42-0.34c0.34-0.23,0.52-0.63,0.52-1.21c0-0.6-0.18-1.01-0.54-1.24s-0.82-0.33-1.38-0.33h-1.83V92.82z"/>
	<path d="M263.51,101.38c-1.18,0-2.26-0.2-3.25-0.6c-0.99-0.4-1.85-0.95-2.58-1.66c-0.73-0.71-1.29-1.54-1.69-2.49
		c-0.4-0.95-0.6-1.99-0.6-3.1c0-1.12,0.2-2.15,0.6-3.11c0.4-0.95,0.96-1.79,1.69-2.49s1.59-1.26,2.58-1.66
		c0.99-0.39,2.07-0.59,3.25-0.59c1.17,0,2.26,0.2,3.24,0.6c0.99,0.4,1.84,0.96,2.57,1.68c0.73,0.72,1.29,1.55,1.69,2.5
		s0.6,1.97,0.6,3.07c0,1.11-0.2,2.14-0.6,3.1c-0.4,0.95-0.97,1.78-1.69,2.49c-0.73,0.71-1.58,1.26-2.57,1.66
		C265.76,101.18,264.68,101.38,263.51,101.38z M263.51,97.32c0.52,0,1-0.09,1.43-0.26c0.43-0.18,0.81-0.43,1.12-0.76
		s0.56-0.73,0.73-1.19c0.17-0.47,0.26-0.99,0.26-1.57c0-0.77-0.15-1.44-0.45-2.01c-0.3-0.57-0.72-1-1.25-1.31
		c-0.53-0.31-1.15-0.46-1.84-0.46c-0.52,0-1,0.09-1.44,0.26s-0.81,0.43-1.12,0.76c-0.32,0.33-0.56,0.73-0.73,1.19
		c-0.17,0.47-0.26,0.99-0.26,1.57c0,0.77,0.15,1.44,0.45,2.01c0.3,0.57,0.72,1,1.25,1.31C262.2,97.16,262.81,97.32,263.51,97.32z"/>
	<path d="M273.98,101.06V86.01h4.3v8.28l5.14-8.28h4.36v15.05h-4.3v-8.41l-5.16,8.41H273.98z M280.88,84.72
		c-0.96,0-1.79-0.17-2.5-0.52c-0.71-0.34-1.26-0.83-1.64-1.45c-0.39-0.62-0.57-1.34-0.56-2.17h3.44c-0.02,0.44,0.08,0.79,0.31,1.05
		c0.23,0.26,0.55,0.39,0.96,0.39c0.41,0,0.73-0.13,0.96-0.39c0.23-0.26,0.33-0.61,0.31-1.05h3.44c0.01,0.81-0.18,1.53-0.57,2.15
		c-0.39,0.62-0.95,1.11-1.66,1.46S281.82,84.72,280.88,84.72z"/>
	<path d="M291.07,101.06V86.01h9.68v3.96h-5.33v11.1H291.07z"/>
	<path d="M302.68,101.06V86.01h6.43c1.15,0,2.18,0.2,3.09,0.61c0.9,0.41,1.61,1,2.13,1.78s0.78,1.71,0.78,2.81
		c0,1.1-0.24,2.04-0.72,2.82c-0.48,0.77-1.18,1.37-2.09,1.77s-2.01,0.61-3.3,0.61h-1.98v4.64H302.68z M307.03,92.82h1.81
		c0.6,0,1.08-0.11,1.42-0.34c0.34-0.23,0.52-0.63,0.52-1.21c0-0.6-0.18-1.01-0.54-1.24s-0.82-0.33-1.38-0.33h-1.83V92.82z"/>
	<path d="M321.8,97.25l-5.85-11.25h5.25l3.55,7.65L321.8,97.25z M317.97,101.38l-1.46-3.94c1.04-0.17,1.93-0.43,2.67-0.79
		c0.74-0.36,1.38-0.87,1.94-1.52s1.07-1.49,1.55-2.53l3.05-6.6h5.03l-4.32,8.69c-0.59,1.18-1.19,2.18-1.8,3
		c-0.61,0.82-1.26,1.49-1.93,2.01s-1.4,0.9-2.18,1.17C319.74,101.13,318.89,101.3,317.97,101.38z"/>
	<path d="M332.05,101.06V86.01h13.72v15.05h-4.34v-11.1h-5.03v11.1H332.05z"/>
	<path d="M349.06,101.06V86.01h13.72v15.05h-4.34v-11.1h-5.03v11.1H349.06z"/>
</g>
<g>
	<path d="M147.76,122.61c-1.01,0-1.9-0.22-2.68-0.66c-0.78-0.44-1.39-1.04-1.83-1.81c-0.44-0.76-0.66-1.63-0.66-2.59
		c0-0.73,0.13-1.41,0.39-2.02c0.26-0.62,0.63-1.15,1.11-1.61c0.48-0.45,1.04-0.81,1.69-1.06c0.65-0.25,1.36-0.38,2.12-0.38
		c0.62,0,1.2,0.08,1.72,0.24c0.53,0.16,1.01,0.41,1.46,0.75l-0.92,1.39c-0.29-0.25-0.63-0.44-1.02-0.57
		c-0.39-0.13-0.8-0.19-1.24-0.19c-0.71,0-1.33,0.14-1.85,0.41c-0.52,0.27-0.93,0.66-1.21,1.17c-0.29,0.51-0.43,1.12-0.43,1.84
		c0,1.08,0.31,1.93,0.94,2.55c0.62,0.61,1.47,0.92,2.54,0.92c0.49,0,0.95-0.09,1.38-0.27c0.43-0.18,0.78-0.41,1.05-0.7l0.92,1.36
		c-0.5,0.38-1.05,0.67-1.64,0.89S148.41,122.61,147.76,122.61z"/>
	<path d="M161.51,122.32v-8.02h-3.27v-1.52h8.34v1.52h-3.28v8.02H161.51z"/>
	<path d="M174.57,126.41v-13.63h1.64v1.43c0.4-0.51,0.89-0.92,1.49-1.24c0.6-0.32,1.36-0.48,2.27-0.48c0.95,0,1.78,0.22,2.5,0.67
		c0.72,0.44,1.28,1.05,1.69,1.81c0.41,0.77,0.61,1.63,0.61,2.58c0,0.69-0.12,1.35-0.35,1.96s-0.56,1.15-0.99,1.62
		s-0.94,0.83-1.52,1.09c-0.59,0.26-1.24,0.39-1.96,0.39c-0.8,0-1.51-0.15-2.11-0.45c-0.6-0.3-1.1-0.7-1.5-1.2v5.44H174.57z
		 M179.66,120.99c0.64,0,1.21-0.14,1.71-0.42s0.89-0.68,1.17-1.2c0.28-0.52,0.42-1.12,0.42-1.83s-0.14-1.31-0.42-1.83
		c-0.28-0.52-0.67-0.92-1.17-1.2c-0.5-0.28-1.07-0.42-1.7-0.42c-0.64,0-1.21,0.14-1.71,0.42c-0.5,0.28-0.89,0.68-1.17,1.2
		c-0.29,0.52-0.43,1.13-0.43,1.83s0.14,1.31,0.43,1.83c0.29,0.52,0.68,0.92,1.17,1.2C178.45,120.85,179.02,120.99,179.66,120.99z"/>
	<path d="M197.36,122.61c-0.99,0-1.87-0.23-2.64-0.69c-0.77-0.46-1.38-1.07-1.82-1.84s-0.66-1.61-0.66-2.53
		c0-0.68,0.13-1.33,0.38-1.94s0.61-1.15,1.07-1.62c0.46-0.47,1-0.84,1.62-1.1c0.62-0.27,1.31-0.4,2.05-0.4
		c0.99,0,1.87,0.23,2.64,0.69c0.77,0.46,1.38,1.07,1.82,1.84s0.66,1.61,0.66,2.53c0,0.68-0.13,1.33-0.38,1.94s-0.61,1.15-1.07,1.62
		s-1,0.84-1.62,1.1C198.79,122.47,198.1,122.61,197.36,122.61z M197.37,120.99c0.64,0,1.2-0.14,1.7-0.42s0.89-0.68,1.17-1.2
		c0.29-0.52,0.43-1.12,0.43-1.83s-0.14-1.31-0.42-1.83c-0.28-0.52-0.67-0.92-1.17-1.2c-0.5-0.28-1.07-0.42-1.71-0.42
		s-1.21,0.14-1.71,0.42c-0.5,0.28-0.89,0.68-1.17,1.2c-0.28,0.52-0.42,1.13-0.42,1.83s0.14,1.31,0.42,1.83
		c0.28,0.52,0.67,0.92,1.17,1.2C196.15,120.85,196.72,120.99,197.37,120.99z"/>
	<path d="M210.69,122.32v-9.54h1.74v6.85l5.55-6.85h1.54v9.54h-1.74v-6.93l-5.6,6.93H210.69z"/>
	<path d="M228.57,122.32v-9.54h1.57h0.06l4.42,6.29l-0.78,0.02l4.22-6.31h1.61v9.54H238l0.02-7.35l0.33,0.15l-3.62,5.21h-1.22
		l-3.77-5.22l0.32-0.15l0.02,7.36H228.57z"/>
	<path d="M259.55,122.32v-9.54h1.79v3.76h5.17v-3.76h1.79v9.54h-1.79v-4.25h-5.17v4.25H259.55z"/>
	<path d="M279.98,122.61c-0.67,0-1.25-0.12-1.75-0.37c-0.5-0.25-0.89-0.6-1.16-1.05c-0.28-0.45-0.41-0.98-0.41-1.6
		c0-0.51,0.13-0.97,0.39-1.39c0.26-0.42,0.67-0.77,1.23-1.04c0.56-0.28,1.28-0.46,2.17-0.56c0.89-0.09,1.96-0.08,3.22,0.05
		l0.05,1.31c-0.97-0.13-1.8-0.18-2.48-0.15c-0.68,0.03-1.23,0.12-1.66,0.27c-0.42,0.15-0.73,0.35-0.93,0.6
		c-0.2,0.25-0.3,0.53-0.3,0.84c0,0.5,0.18,0.89,0.54,1.17c0.36,0.28,0.85,0.42,1.48,0.42c0.54,0,1.02-0.1,1.45-0.3
		c0.42-0.2,0.76-0.47,1.01-0.83c0.25-0.35,0.37-0.76,0.37-1.23v-2.66c0-0.45-0.1-0.85-0.29-1.18c-0.19-0.33-0.48-0.59-0.87-0.77
		s-0.85-0.27-1.41-0.27c-0.51,0-1,0.08-1.49,0.23c-0.49,0.15-0.96,0.39-1.42,0.73l-0.55-1.38c0.59-0.4,1.2-0.68,1.83-0.85
		c0.63-0.16,1.23-0.24,1.81-0.24c0.88,0,1.62,0.14,2.24,0.41c0.62,0.28,1.09,0.69,1.41,1.24c0.32,0.55,0.49,1.24,0.49,2.06v6.21
		h-1.65v-1.17c-0.33,0.47-0.79,0.84-1.37,1.09C281.34,122.48,280.69,122.61,279.98,122.61z"/>
	<path d="M304.69,122.32v-9.54h4.38c1.06,0,1.92,0.21,2.57,0.62c0.65,0.42,0.98,1.03,0.98,1.85c0,0.36-0.08,0.69-0.25,0.98
		s-0.41,0.54-0.72,0.74s-0.68,0.36-1.1,0.45l-0.03-0.39c0.81,0.13,1.43,0.41,1.86,0.85s0.65,0.98,0.65,1.64
		c0,0.58-0.15,1.07-0.45,1.49c-0.3,0.42-0.73,0.73-1.29,0.96c-0.56,0.22-1.22,0.34-2,0.34H304.69z M306.43,120.92h2.62
		c0.7,0,1.24-0.12,1.63-0.35c0.39-0.23,0.58-0.58,0.58-1.05s-0.19-0.82-0.57-1.05c-0.38-0.23-0.93-0.35-1.64-0.35h-2.89v-1.35h2.67
		c0.66,0,1.17-0.1,1.54-0.3s0.54-0.54,0.54-1c0-0.46-0.18-0.79-0.54-1c-0.36-0.2-0.88-0.31-1.54-0.31h-2.39V120.92z"/>
	<path d="M325.83,122.61c-1.01,0-1.91-0.21-2.68-0.63c-0.78-0.42-1.38-1.01-1.81-1.77c-0.43-0.76-0.65-1.64-0.65-2.64
		c0-0.73,0.12-1.4,0.37-2.02c0.25-0.62,0.6-1.16,1.05-1.62c0.45-0.45,0.98-0.81,1.59-1.06c0.61-0.25,1.27-0.38,1.98-0.38
		c0.77,0,1.46,0.14,2.07,0.41c0.61,0.27,1.11,0.65,1.51,1.14c0.4,0.49,0.69,1.06,0.86,1.72s0.21,1.37,0.11,2.15h-7.77
		c-0.02,0.64,0.11,1.19,0.39,1.67c0.28,0.48,0.68,0.85,1.21,1.11c0.53,0.27,1.16,0.4,1.88,0.4c0.53,0,1.05-0.08,1.56-0.25
		c0.51-0.17,0.95-0.42,1.34-0.75l0.76,1.33c-0.31,0.25-0.68,0.47-1.11,0.65c-0.42,0.18-0.87,0.31-1.33,0.4
		S326.27,122.61,325.83,122.61z M322.56,116.52h5.88c-0.03-0.8-0.28-1.43-0.75-1.88s-1.15-0.68-2.03-0.68
		c-0.86,0-1.56,0.23-2.12,0.68S322.65,115.71,322.56,116.52z"/>
	<path d="M338.49,122.32v-9.54h1.79v3.76h2.85v1.53h-2.85v4.25H338.49z M344.89,122.32l-3.22-5.09l2.89-4.45h1.93l-2.88,4.36
		l3.45,5.18H344.89z"/>
	<path d="M357.65,122.61c-0.67,0-1.25-0.12-1.75-0.37c-0.5-0.25-0.89-0.6-1.16-1.05c-0.28-0.45-0.41-0.98-0.41-1.6
		c0-0.51,0.13-0.97,0.39-1.39c0.26-0.42,0.67-0.77,1.23-1.04c0.56-0.28,1.28-0.46,2.17-0.56c0.89-0.09,1.96-0.08,3.22,0.05
		l0.05,1.31c-0.97-0.13-1.8-0.18-2.48-0.15c-0.68,0.03-1.23,0.12-1.66,0.27c-0.42,0.15-0.73,0.35-0.93,0.6
		c-0.2,0.25-0.3,0.53-0.3,0.84c0,0.5,0.18,0.89,0.54,1.17c0.36,0.28,0.85,0.42,1.48,0.42c0.54,0,1.02-0.1,1.45-0.3
		c0.42-0.2,0.76-0.47,1.01-0.83c0.25-0.35,0.37-0.76,0.37-1.23v-2.66c0-0.45-0.1-0.85-0.29-1.18c-0.19-0.33-0.48-0.59-0.87-0.77
		s-0.85-0.27-1.41-0.27c-0.51,0-1,0.08-1.49,0.23c-0.49,0.15-0.96,0.39-1.42,0.73l-0.55-1.38c0.59-0.4,1.2-0.68,1.83-0.85
		c0.63-0.16,1.23-0.24,1.81-0.24c0.88,0,1.62,0.14,2.24,0.41c0.62,0.28,1.09,0.69,1.41,1.24c0.32,0.55,0.49,1.24,0.49,2.06v6.21
		h-1.65v-1.17c-0.33,0.47-0.79,0.84-1.37,1.09C359.01,122.48,358.36,122.61,357.65,122.61z"/>
</g>
<polygon class="st0" points="39.22,118.64 32.32,118.64 32.32,93.75 79.12,69.74 125.92,93.75 125.92,101.44 79.12,77.41 
	39.22,98.07 "/>
<polygon class="st1" points="32.32,122.39 32.32,119.85 32.32,114.63 79.12,90.56 125.92,114.63 125.92,122.32 79.12,98.24 "/>
</svg>
