<svg xmlns="http://www.w3.org/2000/svg" xmlns:xlink="http://www.w3.org/1999/xlink" xmlns:svgjs="http://svgjs.com/svgjs" version="1.1" width="512" height="512" x="0" y="0" viewBox="0 0 64 64" style="enable-background:new 0 0 512 512" xml:space="preserve" class=""><g><path d="M58.65 39.08a21.936 21.936 0 0 0-5.704-4.067c.349-28.13-39.605-33.975-44.395-3.304A11.417 11.417 0 0 0 8.4 33.9c-1.552 1.595-4.291 3.203-4.378 5.52-.26 3.083 2.875 4.88 3.008 4.954 6.53 3.29 15.469 5.828 21.826 7.38A37.35 37.35 0 0 0 51.6 50.246a1 1 0 0 0-.767-1.848 35.338 35.338 0 0 1-21.502 1.413c-5.122-1.25-14.707-3.85-21.361-7.203-.742-.351-3.248-2.663-1.134-4.56l2.071-1.9c1.124 2.196 3.068 3.67 6.035 5.046a1 1 0 0 0 .818-1.826 10.458 10.458 0 0 1-4.859-3.723 3.656 3.656 0 0 1-.498-1.437 9.818 9.818 0 0 1 .128-2.225 30.31 30.31 0 0 1 4.164-10.843 15.185 15.185 0 0 1 1.614-2.021c10.2 3.644 11.542 16.143 11.555 16.271a1 1 0 0 0 1.991-.191c-.054-.561-1.39-13.194-11.966-17.614a16.307 16.307 0 0 1 3.346-2.24c13.257 4.217 14.41 16.63 14.498 27.607a48.713 48.713 0 0 1-16.341-2.191 1 1 0 1 0-.62 1.901c1.262.412 2.627.787 4.057 1.114a54.608 54.608 0 0 0 13.075 1.176 2.332 2.332 0 0 0 2.435 1.31 26.817 26.817 0 0 0 10.354-1.212c1.525-.254 1.892-1.77 1.576-3.1a10.489 10.489 0 0 0 2.46-4.698c5.378 2.715 7.875 6.088 1.566 9.435a1 1 0 0 0 1.003 1.73 20.612 20.612 0 0 0 2.944-2.05 5.059 5.059 0 0 0 .408-7.287zm-20.885 5.141a79.086 79.086 0 0 0-1.297-14.73A21.355 21.355 0 0 0 24.04 14.223a20.163 20.163 0 0 1 10.024-.773c7.446 4.196 12.043 11.098 13.295 19.972.093.746.722 6.854 1.024 9.659a26.575 26.575 0 0 1-10.618 1.14zm13.109-8.1a6.501 6.501 0 0 1-.914 2.838 881.99 881.99 0 0 0-.618-5.797 28.67 28.67 0 0 0-8.6-17.273c6.992 3.91 10.973 13.283 10.132 20.231z" fill="#203b63" data-original="#ff6600" class=""/></g></svg>