<svg xmlns="http://www.w3.org/2000/svg" xmlns:xlink="http://www.w3.org/1999/xlink" xmlns:svgjs="http://svgjs.com/svgjs" version="1.1" width="512" height="512" x="0" y="0" viewBox="0 0 512.001 512" style="enable-background:new 0 0 512 512" xml:space="preserve"><g><path d="M511.957 204.48a9.996 9.996 0 0 0-5.312-9.77l-93.665-49.1 91.973-28.426a9.999 9.999 0 0 0 1.692-18.41L320.402 1.143a9.99 9.99 0 0 0-7.593-.699L7.047 94.941a10.004 10.004 0 0 0-1.692 18.414l64.31 33.711a346.094 346.094 0 0 0 31.034 14.36L7 190.895a9.997 9.997 0 0 0-1.645 18.394l93.665 49.102-91.973 28.425a9.995 9.995 0 0 0-7.004 8.641 9.996 9.996 0 0 0 5.312 9.77l186.243 97.628a10.01 10.01 0 0 0 7.597.7l114.035-35.242c5.274-1.633 8.23-7.231 6.598-12.508-1.629-5.278-7.226-8.235-12.504-6.602L197.23 383.227 36.11 298.766l88.035-27.207 67.453 35.359a9.962 9.962 0 0 0 4.644 1.145c.992 0 1.988-.149 2.953-.446l186.684-57.695 90.012 47.183-92.036 28.446c-5.277 1.629-8.234 7.23-6.601 12.508 1.324 4.293 5.277 7.046 9.55 7.046.977 0 1.973-.144 2.958-.445l115.191-35.601a10 10 0 0 0 7.004-8.641 9.996 9.996 0 0 0-5.312-9.77l-93.665-49.101 91.973-28.426a9.995 9.995 0 0 0 7.004-8.64zM36.109 106.895l278.66-86.122 161.122 84.461-151.07 46.688a330.19 330.19 0 0 1-22.079 5.984l-20.98-6.14c-25.782-7.547-47.086-24.676-59.992-48.235a9.99 9.99 0 0 0-7.958-5.164 9.965 9.965 0 0 0-8.69 3.809c-18.427 23.574-46.157 37.094-76.083 37.094H99.61a331.168 331.168 0 0 1-20.66-9.918zm115.68 50.168c22.68-4.458 43.434-15.536 59.84-32.07 12.344 17.472 28.969 31.171 48.402 39.976a319.997 319.997 0 0 1-108.242-7.906zm45.441 130.226L35.96 202.75l96.38-30.309a346.262 346.262 0 0 0 14.433 3.891A10.067 10.067 0 0 0 145 182c0 2.629 1.07 5.21 2.93 7.07A10.08 10.08 0 0 0 155 192c2.64 0 5.21-1.07 7.07-2.93A10.08 10.08 0 0 0 165 182c0-.578-.063-1.152-.16-1.719a345.261 345.261 0 0 0 32.98 4.633 345.956 345.956 0 0 0 31.676 1.457c20.656 0 41.191-1.879 61.48-5.598-.05.407-.085.817-.085 1.227 0 2.629 1.07 5.21 2.93 7.07 1.87 1.86 4.44 2.93 7.07 2.93s5.21-1.07 7.07-2.93a10.054 10.054 0 0 0 2.937-7.07c0-1.813-.515-3.594-1.445-5.14a348.702 348.702 0 0 0 21.274-5.829l20.894-6.457a9.941 9.941 0 0 0 1.809 2.496c1.86 1.86 4.441 2.93 7.07 2.93s5.21-1.07 7.07-2.93a10.08 10.08 0 0 0 2.93-7.07c0-.414-.035-.824-.09-1.234l15.469-4.782 90.012 47.184zm0 0" fill="#05498C" data-original="#05498C"/><path d="M348.488 336.95c-2.64 0-5.218 1.07-7.078 2.929s-2.93 4.441-2.93 7.07c0 2.63 1.07 5.211 2.93 7.07s4.438 2.93 7.078 2.93c2.633 0 5.2-1.07 7.07-2.93a10.08 10.08 0 0 0 2.93-7.07c0-2.629-1.066-5.21-2.93-7.07a10.087 10.087 0 0 0-7.07-2.93zM201.828 243a10.07 10.07 0 0 0-7.066 2.93c-1.864 1.86-2.934 4.441-2.934 7.07s1.07 5.21 2.934 7.07a10.07 10.07 0 0 0 7.066 2.93c2.633 0 5.211-1.07 7.07-2.93 1.872-1.86 2.93-4.441 2.93-7.07s-1.058-5.21-2.93-7.07a10.059 10.059 0 0 0-7.07-2.93zM143.5 213.5a10.08 10.08 0 0 0-7.07 2.93c-1.86 1.86-2.93 4.441-2.93 7.07s1.07 5.21 2.93 7.07c1.86 1.86 4.441 2.93 7.07 2.93s5.21-1.07 7.07-2.93c1.86-1.86 2.93-4.441 2.93-7.07s-1.07-5.21-2.93-7.07a10.08 10.08 0 0 0-7.07-2.93zM277 213.5a10.08 10.08 0 0 0-7.07 2.93c-1.86 1.86-2.93 4.441-2.93 7.07s1.07 5.21 2.93 7.07c1.86 1.86 4.441 2.93 7.07 2.93s5.21-1.07 7.07-2.93c1.86-1.86 2.93-4.441 2.93-7.07s-1.07-5.21-2.93-7.07a10.08 10.08 0 0 0-7.07-2.93zM352 183a10.08 10.08 0 0 0-7.07 2.93c-1.86 1.86-2.93 4.441-2.93 7.07s1.07 5.21 2.93 7.07c1.86 1.86 4.441 2.93 7.07 2.93s5.21-1.07 7.07-2.93c1.86-1.86 2.93-4.441 2.93-7.07s-1.07-5.21-2.93-7.07A10.08 10.08 0 0 0 352 183zM224.5 204.46a10.08 10.08 0 0 0-7.07 2.93 10.073 10.073 0 0 0-2.93 7.07c0 2.63 1.07 5.208 2.93 7.071 1.86 1.86 4.441 2.93 7.07 2.93s5.21-1.07 7.07-2.93a10.087 10.087 0 0 0 2.93-7.07c0-2.633-1.07-5.211-2.93-7.07a10.08 10.08 0 0 0-7.07-2.93zm0 0" fill="#05498C" data-original="#05498C"/></g></svg>