<svg xmlns="http://www.w3.org/2000/svg" xmlns:xlink="http://www.w3.org/1999/xlink" xmlns:svgjs="http://svgjs.com/svgjs" version="1.1" width="512" height="512" x="0" y="0" viewBox="0 0 66 66" style="enable-background:new 0 0 512 512" xml:space="preserve"><g><g style="fill:none;stroke:#05498C;stroke-width:2;stroke-linecap:round;stroke-linejoin:round;stroke-miterlimit:10"><path d="M22.5 20.8c0 2.3 1.8 4.1 4.1 4.1v10H19c0 2.3-1.8 4.1-4.1 4.1s-4.1-1.8-4.1-4.1H3.1l2.2-4.7c.2-.9.4-2 .5-3.5.6-10.1 7.9-18.6 17.9-19.9 1-.1 1.9-.2 2.9-.2v10c-2.3 0-4.1 1.9-4.1 4.2zM64 19.8l-5.1 3c1.2 2 .5 4.5-1.4 5.6-2 1.2-4.5.5-5.7-1.5l-5.5 3.2-5.1-8.6c-2 1.2-4.5.5-5.7-1.5s-.5-4.5 1.5-5.7l-5.1-8.6C42.3-.2 56.8 2.1 64 19.8zM46.1 63.1H26.6v-10c2.3 0 4.1-1.8 4.1-4.1s-1.8-4.1-4.1-4.1v-10H33c0 2.3 1.8 4.1 4.1 4.1s4.1-1.8 4.1-4.1h5.9c-.5 3.3-1.4 6.9-2.8 10.7-.3.7-1.3 4.1-1.5 4.8-.8 5.4.7 7.8 3.3 12.7z"  data-original="#05498C"/><path d="M26.6 63.1h-7.1s1.8-3.5 1.7-6.2c-.1-1.8-1.6-3.3-3.4-3.3h-4.6c-3.9 0-6.6-.6-6.1-2.3.3-.9 1.5-2.5.3-3.7-.3-.3-.2-.7.1-1l.7-.5-1.6-.7c-.3-.1-.4-.4-.4-.7.2-1.8.6-3.7 1-5.4H3.7c-1.2 0-2.1-1.3-1.5-2.4l1-2.1M18.3 53.7h-.5"  data-original="#05498C"/></g></g></svg>