<svg xmlns="http://www.w3.org/2000/svg" xmlns:xlink="http://www.w3.org/1999/xlink" xmlns:svgjs="http://svgjs.com/svgjs" version="1.1" width="512" height="512" x="0" y="0" viewBox="0 0 64 64" style="enable-background:new 0 0 512 512" xml:space="preserve"><g><path d="m59.95 46-10.13-6.61c-1.16-.76-2.72-.6-3.7.37l-4.52 4.47c-5.8-.19-12.06-5.97-13.32-7.19-1.16-1.18-6.94-7.36-7.16-13.11l4.48-4.54c.98-.98 1.15-2.54.38-3.7L19.32 5.63a2.947 2.947 0 0 0-3.66-1.08L5.12 9.21a3.634 3.634 0 0 0-2.14 3.83c.56 5.098 4.467 19.987 17.25 32.5 13.03 12.729 27.001 16.03 32.26 16.73 1.582.214 3.193-.643 3.85-2.13l4.68-10.48c.6-1.32.14-2.86-1.07-3.66z" fill="#000000" data-original="#000000"/></g></svg>