<svg xmlns="http://www.w3.org/2000/svg" xmlns:xlink="http://www.w3.org/1999/xlink" xmlns:svgjs="http://svgjs.com/svgjs" version="1.1" width="512" height="512" x="0" y="0" viewBox="0 0 682.667 682.667" style="enable-background:new 0 0 512 512" xml:space="preserve" class=""><g><defs><clipPath id="a" clipPathUnits="userSpaceOnUse"><path d="M0 512h512V0H0Z" fill="#05498C" data-original="#05498C"/></clipPath></defs><g clip-path="url(#a)" transform="matrix(1.33333 0 0 -1.33333 0 682.667)"><path d="M0 0c-38.95-38.95-58.47-89.95-58.58-140.98" style="stroke-width:20;stroke-linecap:round;stroke-linejoin:round;stroke-miterlimit:10;stroke-dasharray:none;stroke-opacity:1" transform="translate(114.58 366.98)" fill="none" stroke="#05498C" stroke-width="20" stroke-linecap="round" stroke-linejoin="round" stroke-miterlimit="10" stroke-dasharray="none" stroke-opacity="" data-original="#05498C" class=""/><path d="M0 0c38.95-38.95 58.47-89.95 58.58-140.98" style="stroke-width:20;stroke-linecap:round;stroke-linejoin:round;stroke-miterlimit:10;stroke-dasharray:none;stroke-opacity:1" transform="translate(397.42 366.98)" fill="none" stroke="#05498C" stroke-width="20" stroke-linecap="round" stroke-linejoin="round" stroke-miterlimit="10" stroke-dasharray="none" stroke-opacity="" data-original="#05498C" class=""/><path d="M0 0c26.38-5.36 53.62-5.36 80 0" style="stroke-width:20;stroke-linecap:round;stroke-linejoin:round;stroke-miterlimit:10;stroke-dasharray:none;stroke-opacity:1" transform="translate(216 29.58)" fill="none" stroke="#05498C" stroke-width="20" stroke-linecap="round" stroke-linejoin="round" stroke-miterlimit="10" stroke-dasharray="none" stroke-opacity="" data-original="#05498C" class=""/><path d="M0 0c0 22.092 17.909 40 40 40S80 22.092 80 0 62.091-40 40-40 0-22.092 0 0Z" style="stroke-width:20;stroke-linecap:round;stroke-linejoin:round;stroke-miterlimit:10;stroke-dasharray:none;stroke-opacity:1" transform="translate(216 457)" fill="none" stroke="#05498C" stroke-width="20" stroke-linecap="round" stroke-linejoin="round" stroke-miterlimit="10" stroke-dasharray="none" stroke-opacity="" data-original="#05498C" class=""/><path d="M0 0h-47.604c-18.364 0-34.369-12.504-38.812-30.323l-9.289-37.258C-97.278-73.891-92.505-80-86.002-80H38.399c6.503 0 11.276 6.109 9.703 12.419l-9.29 37.258C34.369-12.504 18.364 0 0 0Z" style="stroke-width:20;stroke-linecap:round;stroke-linejoin:round;stroke-miterlimit:10;stroke-dasharray:none;stroke-opacity:1" transform="translate(279.802 417)" fill="none" stroke="#05498C" stroke-width="20" stroke-linecap="round" stroke-linejoin="round" stroke-miterlimit="10" stroke-dasharray="none" stroke-opacity="" data-original="#05498C" class=""/><path d="M0 0c0 22.092 17.908 40 40 40 22.091 0 40-17.908 40-40S62.091-40 40-40C17.908-40 0-22.092 0 0Z" style="stroke-width:20;stroke-linecap:round;stroke-linejoin:round;stroke-miterlimit:10;stroke-dasharray:none;stroke-opacity:1" transform="translate(47.206 135)" fill="none" stroke="#05498C" stroke-width="20" stroke-linecap="round" stroke-linejoin="round" stroke-miterlimit="10" stroke-dasharray="none" stroke-opacity="" data-original="#05498C" class=""/><path d="M0 0h-47.604c-18.364 0-34.369-12.504-38.812-30.323l-9.29-37.258C-97.279-73.891-92.505-80-86.002-80h124.4c6.504 0 11.277 6.109 9.704 12.419l-9.29 37.258C34.369-12.504 18.364 0 0 0Z" style="stroke-width:20;stroke-linecap:round;stroke-linejoin:round;stroke-miterlimit:10;stroke-dasharray:none;stroke-opacity:1" transform="translate(111.007 95)" fill="none" stroke="#05498C" stroke-width="20" stroke-linecap="round" stroke-linejoin="round" stroke-miterlimit="10" stroke-dasharray="none" stroke-opacity="" data-original="#05498C" class=""/><path d="M0 0c0 22.092 17.909 40 40 40 22.092 0 40-17.908 40-40S62.092-40 40-40C17.909-40 0-22.092 0 0Z" style="stroke-width:20;stroke-linecap:round;stroke-linejoin:round;stroke-miterlimit:10;stroke-dasharray:none;stroke-opacity:1" transform="translate(384.794 135)" fill="none" stroke="#05498C" stroke-width="20" stroke-linecap="round" stroke-linejoin="round" stroke-miterlimit="10" stroke-dasharray="none" stroke-opacity="" data-original="#05498C" class=""/><path d="M0 0h-47.604c-18.364 0-34.369-12.504-38.812-30.323l-9.29-37.258C-97.279-73.891-92.506-80-86.002-80h124.4c6.503 0 11.277 6.109 9.704 12.419l-9.29 37.258C34.369-12.504 18.364 0 0 0Z" style="stroke-width:20;stroke-linecap:round;stroke-linejoin:round;stroke-miterlimit:10;stroke-dasharray:none;stroke-opacity:1" transform="translate(448.597 95)" fill="none" stroke="#05498C" stroke-width="20" stroke-linecap="round" stroke-linejoin="round" stroke-miterlimit="10" stroke-dasharray="none" stroke-opacity="" data-original="#05498C" class=""/><path d="m0 0 26.846-26.846L100 46.309" style="stroke-width:20;stroke-linecap:round;stroke-linejoin:round;stroke-miterlimit:10;stroke-dasharray:none;stroke-opacity:1" transform="translate(206 197.269)" fill="none" stroke="#05498C" stroke-width="20" stroke-linecap="round" stroke-linejoin="round" stroke-miterlimit="10" stroke-dasharray="none" stroke-opacity="" data-original="#05498C" class=""/></g></g></svg>